<?xml version="1.0" encoding="utf-8"?>
<!-- Generator: Adobe Illustrator 16.0.0, SVG Export Plug-In . SVG Version: 6.00 Build 0)  -->
<!DOCTYPE svg PUBLIC "-//W3C//DTD SVG 1.1//EN" "http://www.w3.org/Graphics/SVG/1.1/DTD/svg11.dtd">
<svg version="1.1" xmlns="http://www.w3.org/2000/svg" xmlns:xlink="http://www.w3.org/1999/xlink" x="0px" y="0px"
	 width="2954.668px" height="2105.312px" viewBox="0 0 2954.668 2105.312" enable-background="new 0 0 2954.668 2105.312"
	 xml:space="preserve">
<g id="Layer_2" display="none">
	<path display="inline" fill="#57C4C4" d="M1476.784,19.583c268.023-0.812,536.858,53.605,783.765,158.377
		c237.973,100.712,457.263,248.53,639.194,432.898c21.93,22.741,17.057,64.163-11.37,79.595
		c-25.991,15.431-51.169,5.685-70.66-13.808c-160.003-158.377-347.619-289.14-553.104-381.73
		c-202.235-92.589-419.903-147.006-641.632-164.874c-48.731-4.062-97.463-3.249-146.194-6.498
		c-76.345,3.249-151.879,3.249-227.412,13.807c-347.618,38.985-683.053,177.058-957.574,394.725
		c-60.915,47.107-116.956,99.087-172.185,151.879c-30.863,29.239-82.031,10.558-86.904-31.675
		c-4.061-31.675,17.868-47.107,38.172-66.599c152.692-148.632,328.938-272.085,519.803-364.674
		C865.205,86.995,1171.4,17.958,1476.784,19.583L1476.784,19.583z"/>
	<path display="inline" fill="#57C4C4" d="M1598.613,460.604c371.983,28.426,730.16,192.489,992.497,458.888
		c11.371,12.182,15.432,25.178,13.809,41.421c-2.438,30.052-35.737,51.98-64.976,43.858c-19.493-7.31-33.302-21.928-47.921-35.736
		c-254.216-246.094-597.771-391.476-950.263-407.72c-163.25-7.311-328.938,12.183-485.69,58.478
		c-220.916,64.976-427.213,181.931-594.524,341.12c-16.243,15.432-34.111,36.548-56.041,43.858
		c-24.366,7.311-52.793-8.121-61.727-31.675c-7.31-22.741-2.437-42.233,14.62-58.477
		c148.631-148.631,328.125-267.211,523.863-345.994C1108.05,479.283,1355.768,440.298,1598.613,460.604L1598.613,460.604z"/>
	<path display="inline" fill="#57C4C4" d="M1777.295,933.298c178.683,48.731,345.994,142.946,480.005,270.46
		c12.184,11.37,26.803,23.552,34.926,37.359c11.37,26.803,0,58.479-26.804,69.036c-29.237,13.808-52.792-5.683-73.097-24.364
		c-86.092-82.846-186.804-151.067-295.639-199.799c-195.736-87.717-415.841-109.646-625.386-69.849
		c-153.504,30.864-298.886,95.026-423.151,190.867c-39.799,27.613-72.285,62.538-109.647,93.4
		c-18.68,15.432-41.421,19.492-62.539,6.497c-28.426-15.432-34.111-56.854-10.559-79.596
		c138.885-139.696,314.318-242.844,504.371-294.824C1366.326,878.881,1579.121,878.881,1777.295,933.298L1777.295,933.298z"/>
	<path display="inline" fill="#57C4C4" d="M1804.098,1636.656c-34.925-127.515-147.008-227.413-277.77-246.906
		c-39.797-6.497-81.219-5.685-121.016,2.437c-133.2,25.989-242.846,134.824-268.835,268.023
		c-28.427,135.637,30.863,280.205,147.007,355.739c117.768,79.595,281.019,75.534,393.912-9.747
		C1791.103,1923.36,1843.083,1772.292,1804.098,1636.656z M1690.391,1825.897c-38.985,88.528-132.386,147.817-229.849,141.32
		c-122.642-3.248-227.416-111.27-225.79-234.723c-3.249-112.084,80.407-214.418,190.052-236.348
		c98.275-20.305,199.799,24.366,251.78,109.645C1716.38,1670.768,1722.066,1756.046,1690.391,1825.897z"/>
</g>
<g id="Layer_3" display="none">
	<path display="inline" fill="#57C4C4" d="M2502.403,1024.08c-48.627-49.267-97.893-97.894-147.16-147.16
		c-45.428-47.348-97.893-87.657-158.037-114.53c26.232-63.983,46.066-128.606,46.707-198.347c1.92-81.258,0-162.517,0.641-243.135
		c-0.641-11.517,1.279-25.593-8.958-33.911c-9.598-10.877-28.152-8.318-40.949-8.958c-78.698,0.64-158.037-0.64-236.736,1.279
		c-69.741,0.64-134.364,20.475-198.348,46.708c-23.673-51.186-55.665-98.533-95.334-138.843
		c-53.105-53.745-106.852-106.851-159.957-159.957c-10.238-9.598-17.275-18.555-32.632-17.915
		c-15.355-0.64-22.394,8.317-32.631,17.915c-53.106,53.746-106.851,106.212-159.957,159.957
		c-39.669,40.31-72.3,87.657-95.334,138.843c-42.229-15.996-83.178-31.991-127.966-39.029c-38.39-8.318-76.139-7.678-115.169-8.318
		c-65.902,0-132.445,0-198.347,0c-12.157,0.64-24.954-1.279-33.912,8.958c-10.237,8.317-8.317,22.394-8.957,33.91
		c0.64,81.259-0.64,162.517,0.64,243.135c1.279,69.742,20.474,134.364,46.708,198.348
		c-54.385,24.953-103.653,59.503-145.242,101.732c-53.105,53.105-106.851,106.851-159.957,159.957
		c-15.996,13.436-15.996,38.39,0,51.827c53.105,53.105,106.851,106.851,159.957,159.958
		c41.589,42.228,90.856,77.417,145.242,101.731c-26.873,65.902-46.067,131.805-46.708,203.465c-1.28,79.339,0,158.679-0.64,238.017
		c1.28,11.517-1.28,26.233,8.957,34.551c8.958,10.878,27.513,8.317,40.309,8.958c81.259-0.641,161.877,0.639,243.135-1.28
		c67.822-1.919,129.886-21.114,191.949-46.707c24.313,53.105,57.584,101.093,98.534,142.042
		c54.385,54.385,108.771,108.771,163.157,163.156c13.436,15.995,38.389,15.995,51.826,0
		c54.385-54.386,108.77-108.771,163.156-163.156c40.948-40.949,74.859-89.575,99.173-142.042
		c63.983,26.233,128.606,45.428,198.348,46.707c78.699,1.919,157.397,0,236.736,1.28c12.797-0.641,31.352,1.92,40.949-8.958
		c10.237-8.317,8.317-22.394,8.958-33.911c-0.641-81.258,0.639-162.516-0.641-243.135c-0.641-69.74-20.475-134.364-46.707-198.347
		c54.385-24.954,103.652-59.504,145.24-101.732c53.106-53.105,106.852-106.853,159.957-159.957
		C2518.399,1062.47,2518.399,1037.516,2502.403,1024.08z M1786.437,699.687c24.312-83.178,28.791-172.114,12.796-257.211
		c-3.839-19.835-10.237-37.75-10.877-57.584c19.194-5.119,37.11-13.437,56.305-19.195c37.749-11.516,77.419-18.554,116.449-21.753
		c72.94-1.281,145.24,0,218.182-0.641c0,60.784,0,121.568,0,181.711c1.28,47.987-6.399,96.614-19.195,143.321
		c-5.758,22.395-16.636,42.869-21.755,65.263c-21.113-0.639-39.029-7.677-59.503-11.516
		c-85.097-15.997-172.754-10.878-255.933,12.796c-19.194,7.678-38.389,14.716-58.224,19.835
		C1772.359,737.437,1780.037,718.882,1786.437,699.687z M1824.187,805.898c88.295-30.711,186.83-31.991,276.406-7.677
		c-28.152,39.029-59.505,76.139-96.615,106.851c-85.097,72.3-196.428,113.25-308.398,111.33c-47.347-0.64-94.693,1.92-142.041-1.28
		c46.707-44.148,89.576-92.775,138.843-133.724C1732.05,847.487,1776.837,823.174,1824.187,805.898z M1663.588,800.14
		c-43.508,61.423-104.931,111.97-156.117,167.635c-3.199-55.665-1.28-111.97-1.28-167.635
		c5.119-154.199,90.856-294.321,217.541-378.778C1758.923,549.967,1740.367,690.089,1663.588,800.14z M1333.437,227.494
		c43.508-44.148,87.656-87.657,131.166-131.806c5.758-6.398,12.796-2.559,17.274,3.2c44.788,46.707,92.135,91.496,137.563,138.203
		c33.91,35.191,60.783,75.5,81.259,119.648c-46.708,31.351-91.496,65.902-127.966,109.411
		c-44.148,48.626-76.141,105.572-100.454,166.355c-7.677-8.958-11.516-23.034-16.635-33.911
		c-44.788-101.093-120.927-182.351-213.703-241.855C1265.615,308.751,1295.688,264.603,1333.437,227.494z M1219.547,421.361
		c38.389,26.873,73.58,56.945,104.292,92.775c67.182,77.419,108.131,177.232,113.25,279.605c0,57.584,1.919,116.449-0.64,174.033
		c-39.67-42.229-83.817-81.258-122.208-124.767c-58.864-64.623-96.613-148.44-107.491-234.817
		C1199.073,546.128,1203.552,481.505,1219.547,421.361z M1250.899,880.119c48.626,41.589,91.496,90.215,138.842,133.724
		c-55.665,3.199-111.97,1.28-167.635,1.28c-153.559-5.119-294.321-90.216-378.778-217.542c27.513-7.038,55.665-13.436,83.817-14.716
		C1042.955,771.348,1161.963,805.898,1250.899,880.119z M1005.844,345.221c45.428,8.318,89.577,14.076,132.445,35.191
		c6.398,1.28,12.157,2.56,18.556,3.199c0,21.114-7.678,39.669-10.877,60.145c-19.195,104.292-8.958,213.062,33.911,310.316
		c-19.195-3.199-38.39-12.797-56.944-19.195c-84.458-24.313-174.034-28.792-260.41-11.517c-18.556,3.839-36.47,10.237-55.666,10.237
		c-1.279-5.758-2.559-12.156-3.199-17.915c-21.115-44.788-30.712-96.614-35.831-145.881c-1.919-75.5,0-150.999-0.64-226.499
		C845.247,343.943,925.866,342.022,1005.844,345.221z M636.023,1175.719c-39.668-39.67-78.698-79.338-119.007-118.368
		c-5.759-5.759-2.559-12.798,3.199-17.276c38.39-36.47,74.86-74.22,112.61-111.971c40.309-42.868,90.856-83.178,145.241-106.211
		c17.275,19.834,28.792,43.508,46.708,62.062c60.784,74.221,141.402,131.166,230.978,165.716
		c-21.754,11.517-45.428,19.195-66.542,31.352c-56.945,31.352-110.05,72.301-152.279,121.566
		c-23.034,23.035-38.389,51.188-58.864,76.141C724.959,1256.337,676.333,1216.668,636.023,1175.719z M1176.039,1351.671
		c-5.118,16.637-12.797,31.993-18.555,48.629c-23.673,83.178-28.792,170.833-12.796,255.931
		c3.839,20.474,10.877,39.029,11.518,60.143c-6.398,1.28-12.158,2.56-18.556,3.2c-46.067,22.395-99.813,30.712-150.359,35.83
		c-74.221,1.279-148.44,0-222.021,0.641c0-60.784,0-121.567,0-181.713c-0.641-49.265,6.397-99.812,20.474-147.16
		c5.758-21.113,15.356-40.309,21.115-61.424c23.034-0.639,41.589,8.318,63.983,11.518c101.733,17.276,208.584,8.317,303.279-33.271
		C1174.759,1347.193,1177.318,1348.473,1176.039,1351.671z M1063.429,1310.083c-72.301,14.076-149.08,11.517-220.101-7.678
		c28.792-40.309,61.424-78.06,99.813-109.411c84.457-71.021,194.508-110.051,305.198-108.131c47.348,0.64,94.694-1.92,142.042,1.279
		c-42.228,39.67-81.258,83.178-124.766,122.207C1208.67,1259.537,1137.649,1294.087,1063.429,1310.083z M1280.331,1299.845
		c43.508-61.423,104.932-111.97,156.118-167.635c3.2,47.348,0.64,94.695,1.28,142.043c1.92,70.381-14.076,140.762-44.148,204.105
		c-37.75,81.897-99.813,149.72-174.033,200.266C1184.997,1550.02,1203.552,1409.897,1280.331,1299.845z M1610.482,1873.132
		c-43.509,44.148-87.655,87.658-131.165,131.804c-5.758,6.4-12.796,2.56-17.275-3.198c-44.788-46.706-92.135-91.496-137.564-138.204
		c-33.91-35.189-60.783-75.499-81.258-119.647c103.652-66.542,185.551-161.876,228.418-277.685l1.92,3.839
		c6.397,12.156,11.517,24.313,15.995,36.471c45.428,99.172,120.928,179.15,211.783,237.375
		C1678.305,1791.875,1648.232,1835.381,1610.482,1873.132z M1724.372,1678.625c-38.39-26.873-73.58-56.945-103.652-92.776
		c-74.22-85.735-115.809-198.346-113.89-311.595c0.641-47.348-1.919-94.695,1.28-142.043
		c54.385,58.864,124.127,115.171,166.354,182.992C1742.287,1422.694,1757.003,1556.417,1724.372,1678.625z M1757.003,1263.376
		c-77.419-40.948-138.203-118.368-202.825-177.873c56.305-3.198,113.249-1.279,170.194-1.279
		c152.92,5.758,292.402,90.855,376.221,217.541C1985.423,1333.117,1860.656,1322.242,1757.003,1263.376z M1996.94,1756.683
		c-47.349,1.281-95.336-6.397-140.763-18.555c-23.035-5.759-44.149-16.637-67.822-22.394c0-8.319,0.64-16.636,3.199-24.954
		c25.594-94.694,21.754-196.426-4.479-290.48c-5.758-18.556-17.915-37.751-17.915-56.945v-1.919l4.479,2.558
		c15.996,8.959,31.992,15.356,49.267,21.115c81.26,23.674,167.636,28.152,251.453,13.437c22.395-3.839,41.59-11.517,63.982-12.156
		c6.399,23.034,16.637,44.788,22.395,67.821c9.598,33.91,14.717,69.741,17.916,104.933c1.279,72.939,0,145.24,0.639,218.18
		C2117.867,1756.683,2057.083,1756.683,1996.94,1756.683z M2423.704,1060.55c-46.066,44.148-89.576,89.575-135.003,133.724
		c-35.19,35.191-78.059,63.343-122.847,84.458c-50.547-76.78-115.169-143.322-195.148-189.39
		c-26.232-16.635-55.025-26.873-82.537-40.31c62.703-24.313,121.566-58.225,171.473-103.652
		c43.51-35.831,74.221-79.338,106.852-124.127c53.107,21.754,102.373,61.424,142.043,102.373
		c39.668,39.669,78.698,79.339,119.008,118.368C2432.663,1049.033,2429.464,1056.072,2423.704,1060.55z"/>
</g>
<g id="Layer_4">
	<g>
		<path fill="#57C4C4" d="M1340.193,217.902h255.838c14.346,0.797,27.896-0.797,40.648,7.173
			c22.315,11.956,32.677,40.647,23.113,64.557c-8.768,23.114-31.881,33.475-54.994,32.677c-69.339,0-138.68,0-208.019,0
			c-23.113,0-47.023,1.594-70.137-1.593c-28.692-4.782-48.617-33.475-41.444-62.167
			C1291.575,232.248,1314.688,217.105,1340.193,217.902z"/>
		<path fill="#57C4C4" d="M2287.832,1247.633c-54.195-79.7-158.604-113.972-249.462-82.888
			c-54.993,18.33-101.22,58.181-126.724,109.986c-25.504,51.008-27.896,112.377-7.971,164.98
			c18.332,48.617,55.79,90.061,102.018,113.972c54.993,28.692,121.941,32.677,180.123,10.361
			c56.588-21.52,102.813-66.151,124.333-122.74C2336.45,1377.545,2326.887,1303.424,2287.832,1247.633L2287.832,1247.633z
			 M2122.056,1473.984c-58.979,7.969-115.565-34.273-124.333-93.251c-8.768-57.384,31.88-111.58,88.469-122.738
			c60.571-12.751,122.738,28.691,132.302,90.062C2228.058,1410.222,2182.629,1467.607,2122.056,1473.984L2122.056,1473.984z"/>
		<path fill="#57C4C4" d="M1043.707,1296.25c-36.662-104.408-152.228-164.184-259.027-136.287
			c-54.993,14.346-103.61,49.414-133.1,98.828c-31.083,51.007-38.256,114.77-19.925,171.355
			c17.533,55.791,58.978,102.018,111.581,127.522c62.964,31.081,141.07,28.691,202.44-5.58
			C1034.94,1502.675,1079.572,1391.891,1043.707,1296.25L1043.707,1296.25z M883.508,1466.012
			c-56.587,24.708-124.333-2.39-147.445-58.978c-23.114-54.994,4.782-117.957,58.978-141.07
			c56.587-24.708,125.13,2.392,147.446,59.775C964.803,1379.937,936.908,1443.697,883.508,1466.012L883.508,1466.012z"/>
		<path fill="#57C4C4" d="M1212.672,1259.589h471.03c21.519,0,43.039-0.798,63.761,0.797c29.489,4.782,48.617,36.661,39.851,65.354
			c-7.174,24.707-31.083,38.257-55.79,37.46c-159.401,0.797-318.803,0-478.204,0c-17.534,0-35.068,0.797-52.603-1.595
			c-25.504-3.984-43.836-26.302-43.836-51.805C1157.678,1280.312,1183.183,1257.995,1212.672,1259.589z"/>
		<path fill="#57C4C4" d="M1212.672,1466.81c175.342,0,351.479-0.798,526.821,0c40.646,0.797,64.558,49.414,39.053,82.092
			c-21.519,30.287-63.761,18.331-95.64,20.721c-158.605,0-318.803,0.798-477.407,0c-35.865-1.592-59.775-39.053-44.632-72.526
			C1171.228,1476.374,1190.355,1466.012,1212.672,1466.81z"/>
		<path fill="#57C4C4" d="M2719.811,743.926c0-59.775-51.806-109.19-110.784-110.784c-81.295-0.796-163.387,0-244.681,0
			c-35.865-129.911-72.527-260.621-107.596-391.329c-28.693-101.22-101.22-190.485-204.033-219.974
			c-40.648-11.955-79.701-11.955-121.942-11.158c-318.803,0-637.604,0-956.407,0c-54.196,0.797-108.392,15.143-153.822,45.429
			c-63.761,42.241-108.393,109.19-129.912,181.717c-35.068,132.303-72.528,263.013-108.392,395.315c-82.093,0-164.185,0-246.276,0
			c-62.963,0.797-114.769,55.791-110.783,118.754c1.594,42.241-7.97,97.235,19.127,132.303
			c27.098,36.662,73.325,46.226,114.769,54.994c-23.113,119.551-36.662,241.491-51.008,362.637
			c-3.985,37.46-9.565,74.918-9.565,111.581c0.797,175.342-0.796,350.682,0.797,525.226c3.188,82.093,74.918,149.838,157.01,151.433
			c61.369,0.797,122.739,0.797,183.311,0c79.701-2.392,149.837-66.152,156.214-145.853c2.391-54.994,0-110.783,0.796-165.776
			h1353.316c0.797,53.399-0.797,106.798,0.797,160.196c3.188,81.296,74.121,147.447,154.619,150.635
			c61.369,0.798,122.738,0.798,184.108,0c82.091-0.797,154.619-67.744,158.604-150.635c1.594-156.211,0-314.018,0-470.231
			c0-39.851,1.594-79.701-3.985-119.552c-15.94-137.086-31.083-274.967-56.588-410.458c43.835-8.767,90.062-19.127,116.363-58.978
			C2727.78,842.754,2718.217,786.167,2719.811,743.926L2719.811,743.926z M687.445,648.285
			c31.084-111.581,62.167-223.958,92.453-335.539c10.361-41.444,20.722-80.498,45.429-115.565
			c32.678-49.415,87.67-82.889,148.243-82.889h956.406c37.461,0,71.731-2.391,107.597,12.752
			c56.587,22.316,94.844,76.512,113.175,133.1c37.459,135.491,74.919,270.981,112.378,406.473
			c11.158,28.693-5.579,62.167-23.113,85.28c-45.43,59.775-124.333,93.249-198.454,92.453c-376.984,0-754.765,0-1132.546,0
			c-42.24,0.796-82.888-7.97-121.145-26.301c-47.821-23.113-94.046-62.963-108.393-116.363
			C674.694,684.15,683.46,666.616,687.445,648.285L687.445,648.285z M690.633,1931.464c0,31.88-27.098,55.791-58.182,54.994
			c-55.79,0-112.378,0-168.168,0c-31.88,0.797-58.979-24.707-58.979-56.588c-0.796-50.212,0-101.221,0-151.433h286.126
			C690.633,1830.245,691.431,1881.253,690.633,1931.464z M2542.077,1931.464c0,32.677-28.691,56.587-60.571,55.791
			c-55.791,0-112.378,0.796-168.169,0c-29.489,0-56.587-24.707-56.587-54.993c-0.798-51.009,0-102.018,0-153.026h286.125
			C2542.077,1830.245,2542.077,1880.457,2542.077,1931.464L2542.077,1931.464z M2613.012,826.814
			c-32.678,8.768-66.151,11.956-98.829,17.535c-30.286,4.782-51.009,36.662-41.444,66.151
			c15.94,52.603,22.316,106.001,30.286,160.199c15.144,104.408,27.896,208.815,38.256,313.223c1.595,97.234,0,194.47,0.797,291.704
			c-712.523,0-1425.046,0-2137.57,0c0.797-94.844-0.796-189.688,0.797-283.734c13.549-125.927,27.896-251.853,47.82-376.983
			c4.782-35.068,10.361-69.339,21.519-102.814c10.361-27.098-5.578-55.79-32.676-64.557c-37.46-9.564-74.919-7.97-110.784-23.91
			c0-28.693-1.594-56.588,0.797-85.28c82.888-4.782,166.574-0.797,249.463-1.593c15.143,46.226,41.444,84.482,77.309,117.16
			c68.543,62.167,160.198,95.64,252.651,94.844h1132.546c83.685,0,167.371-29.49,232.726-82.092
			c42.241-34.271,73.325-77.309,90.858-129.115c82.092,0.797,164.98-2.391,247.072,1.595
			C2613.808,767.835,2614.605,797.325,2613.012,826.814L2613.012,826.814z"/>
	</g>
</g>
<g id="Layer_5" display="none">
	<path display="inline" fill="#57C4C4" d="M2202.896,533.136c-57.887-169.801-176.876-317.091-329.953-410.353
		C1661.978-8.426,1389.91-29.008,1161.579,68.113C1008.5,132.431,877.934,246.275,793.034,388.419
		c-70.75,117.703-109.342,254.058-109.984,391.701c-1.93,165.298,50.811,329.312,147.932,462.45
		c109.342,151.79,272.711,260.489,454.732,302.94c45.666,171.087,90.689,343.461,136.355,514.548
		c7.719,29.587,43.736,41.808,68.178,23.798c16.079-11.576,18.009-30.872,23.155-48.882
		c43.093-163.368,86.187-326.095,129.28-489.464c151.79-35.376,291.362-117.061,396.845-231.548
		c112.557-121.562,184.594-279.142,201.961-443.797C2253.064,756.321,2240.201,640.548,2202.896,533.136z M2102.559,1054.759
		c-41.806,98.407-106.768,186.524-187.81,255.988c-88.76,76.54-197.457,129.28-312.588,152.435
		c-20.581,3.859-34.089,15.436-39.233,36.662c-32.804,124.777-66.248,249.557-99.052,374.333
		c-33.446-125.421-66.248-250.842-99.693-376.264c-5.145-19.938-18.652-31.515-38.591-34.731
		c-131.853-26.37-254.058-91.977-349.25-186.523c-86.83-85.544-150.506-194.242-182.022-311.945
		c-30.872-113.843-31.516-236.049-1.286-350.536C823.906,493.902,888.226,382.63,976.985,295.8
		c82.328-81.042,185.238-141.5,296.508-173.66c131.853-37.948,275.284-35.375,405.851,7.718
		c135.068,43.737,255.987,130.567,340.245,244.41c67.534,90.046,112.557,196.815,129.28,308.085
		C2168.164,807.776,2152.084,938.342,2102.559,1054.759z"/>
	<path display="inline" fill="#57C4C4" d="M1935.259,650.839c-11.577-35.376-45.666-41.165-77.825-45.023
		c-81.041-6.432-163.369-3.859-245.055-5.789c-23.797-66.248-45.022-133.783-70.749-200.03
		c-9.648-23.798-20.583-51.456-38.592-70.108c-20.582-23.154-61.745-23.154-82.971,0c-18.01,19.296-28.943,47.596-38.591,71.395
		c-24.441,65.604-45.666,132.496-69.464,198.744c-71.394,1.929-142.787,1.286-214.181,4.502
		c-25.727,1.929-54.67,3.216-78.468,13.506c-30.229,12.221-43.737,52.742-27.014,80.399c11.578,20.582,32.159,37.305,50.168,52.741
		c57.244,45.666,117.704,87.473,176.233,131.209c-19.938,63.032-40.52,126.066-59.172,189.74
		c-7.719,27.657-16.723,57.887-14.794,86.83c2.574,27.014,21.869,49.524,49.526,52.741c30.229,3.858,61.103-15.438,86.187-30.874
		c61.746-39.232,120.918-82.971,181.378-124.134c59.173,39.878,117.06,82.327,176.876,120.92
		c26.371,16.079,57.887,37.304,90.047,34.088c25.083-2.573,44.38-21.868,49.524-46.31c4.503-25.084-3.216-54.027-9.647-78.469
		c-19.295-68.178-42.45-135.711-63.033-203.889c64.963-49.526,133.784-95.834,195.529-149.863
		C1924.324,710.655,1948.123,686.214,1935.259,650.839z M1626.53,832.217c-21.869,18.009-17.366,41.164-9.005,64.962
		c21.226,67.534,43.094,134.426,63.032,202.604c-54.671-35.376-107.412-73.967-161.439-110.627
		c-15.437-9.648-30.873-24.442-48.239-28.944c-23.155-4.501-37.305,9.648-54.671,21.869
		c-57.243,39.877-114.487,79.754-172.374,118.989c19.939-67.534,41.808-134.426,63.033-201.317
		c4.502-15.437,10.934-28.943,5.788-45.023c-5.146-18.652-23.155-27.657-37.305-39.234
		c-55.314-41.164-111.271-81.041-165.299-122.848c77.826-3.217,155.651-3.217,232.834-4.502c23.154,0,38.59-14.793,45.022-36.019
		c24.441-70.75,48.239-142.144,73.966-212.895c26.371,71.394,50.812,144.717,75.896,216.754
		c6.433,19.939,21.869,32.159,43.094,32.802c77.825,1.93,155.65,1.287,233.477,3.859
		C1752.596,739.598,1688.275,783.978,1626.53,832.217z"/>
</g>
<g id="Layer_6" display="none">
	<path display="inline" fill="#57C4C4" d="M2506.058,1032.348c0-179.662,0-358.651,0-538.314c0-36.335-6.729-71.325-23.551-103.625
		c-34.992-69.307-107.664-116.41-185.047-117.755c-109.68-0.673-219.363,0-329.044,0c-59.888-74.691-121.119-148.71-181.007-222.727
		c-17.495-21.533-40.374-32.299-67.961-32.973c-224.075,0-449.493,0-673.566,0c-31.625,0-61.233,16.822-76.709,44.411
		c-10.093,17.496-11.439,36.336-11.439,56.523c0,51.812,0,102.953,0,154.765c-98.915,0-197.158,0-296.072,0
		c-34.317,0-68.636,6.056-99.589,21.532c-72.671,34.317-121.12,111.7-121.792,193.12c0,197.157,0,394.987,0,592.146
		c-2.691,92.858,56.522,181.681,144.671,211.96c39.027,14.804,76.71,11.439,117.756,12.113c513.417,0,1027.507,0,1540.922,0
		c39.029,0,74.692,2.69,112.374-10.096c72.672-22.877,129.195-86.802,144.672-161.493
		C2508.075,1098.965,2506.058,1065.994,2506.058,1032.348z M1045.209,102.412c224.073-1.345,448.146-2.019,671.547-3.364
		c62.579,76.709,124.484,153.418,187.736,230.129c0,96.896,0,193.12,0,290.016c-286.652,0-573.305,0-859.956,0
		C1044.536,446.933,1044.536,274.672,1045.209,102.412z M2419.929,1086.179c0,51.14-30.281,98.916-76.711,119.775
		c-30.279,14.13-60.56,10.766-92.858,11.439c-516.108,0-1031.544,0-1547.652,0c-33.645-0.674-67.962,3.363-99.588-11.439
		c-46.43-20.859-76.709-68.636-76.709-119.775c0-197.157,0-394.987,0-592.146c-1.347-49.793,24.896-97.568,68.635-120.447
		c20.859-11.438,43.738-15.477,66.616-15.477c98.242,0,197.157,0,296.072,0c0,101.607-0.673,203.214,0,304.82
		c0.673,26.243,20.858,44.411,47.102,43.065c312.896,0,629.828,0,942.722,0c24.225,0,42.391-18.841,42.391-43.065
		c0.674-101.606,0-203.213,0.674-304.148c95.551,0,191.102,0,286.652,0c22.205,0,43.737,1.347,64.596,10.767
		c46.432,20.187,77.384,67.962,78.059,118.428C2419.929,686.481,2419.929,887.004,2419.929,1086.179z"/>
	<path display="inline" fill="#57C4C4" d="M2184.414,966.404c21.534-10.093,49.122-2.69,58.543,19.515
		c10.767,21.533,0,48.447-21.532,57.869c-18.168,8.748-39.028,2.02-51.142-12.785
		C2154.807,1011.489,2160.864,977.845,2184.414,966.404L2184.414,966.404z"/>
	<path display="inline" fill="#57C4C4" d="M1033.097,1415.224c10.767,12.113,11.439,25.568,11.439,41.046
		c-0.672,179.663,0,358.65,0,538.313c287.325,1.346,574.649,0.673,861.975,1.346c0-182.354-1.346-364.033-1.346-546.387
		c-1.346-21.534,9.42-40.376,30.28-47.103c26.915-8.749,55.177,11.438,55.177,39.699c1.346,178.989,0,359.325,0.674,538.986
		c0,20.858-1.348,39.701-12.111,57.869c-16.152,28.262-45.758,44.41-78.057,43.065c-269.156,0-538.313,0-807.471,0
		c-21.532,0-44.41,1.345-65.943-2.021c-39.7-7.399-69.308-45.755-69.308-85.456c-0.673-178.99,0-359.324-0.673-538.313
		c0.673-16.149,0-30.28,12.112-42.393C986.667,1396.382,1016.948,1396.382,1033.097,1415.224L1033.097,1415.224z"/>
	<path display="inline" fill="#57C4C4" d="M1180.46,1565.279c193.12,0,386.239,0,579.36,0c14.804,0,28.934,1.347,40.374,12.11
		c18.84,17.495,16.822,48.45-2.691,64.601c-11.439,9.42-23.552,9.42-37.683,9.42c-179.663,0-358.651,0-538.314,0
		c-17.496,0-35.663,0.672-53.158-0.674c-24.225-4.038-39.027-28.262-33.645-51.814
		C1139.413,1576.719,1158.256,1564.605,1180.46,1565.279L1180.46,1565.279z"/>
	<path display="inline" fill="#57C4C4" d="M1180.46,1738.212c192.447,0,386.239,0,578.687,0c17.495,0,33.646,2.018,44.413,16.823
		c18.166,23.549,6.727,59.885-22.206,67.288c-20.187,3.363-42.394,1.344-62.579,2.02c-179.664,0-359.325,0-538.314,0
		c-22.204,0.671-40.374-10.768-46.429-32.3C1127.302,1761.763,1150.181,1736.195,1180.46,1738.212L1180.46,1738.212z"/>
</g>
<g id="Layer_7" display="none">
	<path display="inline" fill="#57C4C4" d="M1396.595,9.961c20.061-7.523,43.884,6.896,59.557,18.807
		c43.257,34.48,58.302,89.021,56.422,142.31c-3.135,70.214-31.346,141.682-62.691,203.746
		c-36.36,72.722-82.125,132.906-111.59,209.389c-13.167,34.48-25.704,75.856-20.688,112.844c2.507,21.315,15.673,40.75,36.36,47.645
		c18.808,7.523,36.362,7.523,47.019,26.958c16.299,28.838-3.762,66.452-37.615,66.452c-59.557-5.641-111.591-48.898-127.263-106.574
		c-17.554-62.064,1.88-133.532,25.703-191.208c32.599-82.753,85.259-150.459,122.247-230.704
		c20.062-43.257,38.242-91.53,40.75-139.802c1.254-21.942-1.254-47.646-15.673-65.198c-12.538-12.539-33.227-18.18-40.123-35.734
		C1360.234,46.322,1372.146,17.484,1396.595,9.961L1396.595,9.961z"/>
	<path display="inline" fill="#57C4C4" d="M1677.452,327.179c35.107,3.761,63.318,39.495,70.841,72.095
		c12.539,52.033-6.27,105.948-28.212,152.967c-23.821,52.033-60.183,96.544-75.229,149.832c-3.135,12.538-6.896,29.465-1.254,42.002
		c10.03,5.643,20.061,8.778,30.092,13.793c23.823,15.673,25.075,52.033,3.135,70.841c-17.554,14.419-37.614,10.658-57.049,3.134
		c-42.004-16.3-65.825-58.302-65.199-102.812c1.254-66.453,38.868-127.891,71.469-183.059
		c18.807-34.48,41.377-77.738,40.121-118.486c0-16.926-26.956-21.315-31.973-38.242
		C1621.656,358.524,1644.225,325.297,1677.452,327.179L1677.452,327.179z"/>
	<path display="inline" fill="#57C4C4" d="M2429.118,1268.173c-51.406-55.795-126.636-80.871-201.238-66.453
		c3.762-44.511,8.151-89.646,6.896-134.786c0-21.314-16.926-40.748-38.24-42.002c-20.689-1.882-40.75-0.627-61.439-0.627
		c-466.422,0-932.217,0-1398.012,0c-13.792,0-26.331,1.881-36.362,12.538c-12.538,11.912-13.165,26.958-13.165,43.256
		c1.88,207.508,51.407,416.897,154.22,598.702c74.603,131.024,175.535,245.121,305.933,322.231c-136.666,0-273.333,0-410,0
		c-26.957-1.881-48.272,17.555-48.898,44.512c0.626,26.957,21.942,45.764,48.898,43.885c482.722,0,966.072,0,1448.794,0
		c23.822,0.626,42.629-14.42,45.765-37.615c3.762-28.212-17.554-52.662-46.394-51.406c-136.666,0-273.332,0-409.999,0
		c153.594-91.53,267.69-235.721,342.921-396.211c43.258,41.377,99.68,66.453,160.49,63.318
		c85.26-3.135,160.489-60.184,193.088-137.919C2509.991,1443.083,2493.691,1337.761,2429.118,1268.173z M2083.064,1466.906
		c-50.78,145.442-134.786,285.87-252.02,386.804c-87.14,75.855-194.969,130.398-310.321,142.937
		c-99.052,11.91-200.612-6.271-289.633-50.153c-120.367-58.303-218.165-156.728-290.26-268.317
		c-107.202-167.388-160.49-367.998-167.386-565.478c458.272,0,916.545,0,1374.818,0
		C2143.873,1233.067,2123.187,1352.807,2083.064,1466.906z M2342.606,1556.552c-41.377,29.466-98.426,29.466-141.056,2.509
		c-18.808-11.284-31.974-27.584-44.512-45.139c26.331-70.213,45.138-142.31,58.931-215.657c26.329-11.285,54.54-16.299,82.752-9.404
		c48.898,10.657,87.769,50.154,102.188,97.799C2419.089,1448.097,2397.146,1520.82,2342.606,1556.552z"/>
</g>
</svg>
