<?xml version="1.0" encoding="utf-8"?>
<!-- Generator: Adobe Illustrator 22.1.0, SVG Export Plug-In . SVG Version: 6.00 Build 0)  -->
<svg version="1.1" baseProfile="basic" id="Layer_1"
	 xmlns="http://www.w3.org/2000/svg" xmlns:xlink="http://www.w3.org/1999/xlink" x="0px" y="0px" width="90px" height="90px"
	 viewBox="0 0 90 90" xml:space="preserve">
<path d="M90,49.391c0-4.574-2.03-8.675-5.226-11.478l2.323-4.268c0.555-1.02,0.531-2.272-0.062-3.27
	c-0.566-0.953-1.549-1.522-2.628-1.522h-8.454l-3.11-6.405c-2.706-5.574-8.078-9.036-14.02-9.036H31.176
	c-5.941,0-11.313,3.462-14.02,9.036l-3.11,6.405H5.592c-1.08,0-2.063,0.569-2.629,1.522c-0.592,0.998-0.616,2.25-0.061,3.27
	l2.323,4.268C2.03,40.716,0,44.816,0,49.391c0,4.817,2.246,9.114,5.739,11.917c-0.019,0.077-0.047,0.151-0.047,0.234v8.677
	c0,3.512,2.726,6.369,6.077,6.369h5.807c3.351,0,6.077-2.857,6.077-6.369v-5.545h42.695v5.545c0,3.512,2.727,6.369,6.077,6.369
	h5.807c3.351,0,6.077-2.857,6.077-6.369v-8.677c0-0.083-0.028-0.157-0.047-0.234C87.754,58.504,90,54.207,90,49.391z M84.408,30.853
	c0.528,0,0.812,0.38,0.909,0.543c0.237,0.4,0.246,0.883,0.024,1.292l-2.168,3.983c-1.332-0.888-2.813-1.561-4.393-1.998l-1.855-3.82
	H84.408z M18.955,23.321c2.369-4.879,7.052-7.91,12.221-7.91h27.648c5.169,0,9.852,3.031,12.221,7.91l5.279,10.872
	c-0.528-0.055-1.064-0.086-1.607-0.086H15.283c-0.543,0-1.079,0.031-1.607,0.086L18.955,23.321z M4.659,32.688
	c-0.223-0.409-0.214-0.892,0.024-1.292c0.097-0.164,0.38-0.544,0.909-0.544h7.483l-1.855,3.82c-1.58,0.437-3.062,1.11-4.393,1.998
	L4.659,32.688z M2,49.391c0-6.779,5.107-12.378,11.674-13.176h62.652C82.893,37.013,88,42.612,88,49.391
	c0,7.324-5.959,13.283-13.283,13.283H15.283C7.959,62.674,2,56.715,2,49.391z M21.652,70.219c0,2.409-1.829,4.369-4.077,4.369
	h-5.807c-2.248,0-4.077-1.96-4.077-4.369v-7.583c2.24,1.289,4.828,2.038,7.592,2.038h6.369V70.219z M82.309,70.219
	c0,2.409-1.829,4.369-4.077,4.369h-5.807c-2.248,0-4.077-1.96-4.077-4.369v-5.545h6.369c2.764,0,5.352-0.749,7.592-2.038V70.219z"/>
<path d="M21.108,54.968h-7.783c-3.216,0-5.833-2.616-5.833-5.833c0-3.216,2.617-5.833,5.833-5.833h7.783
	c3.216,0,5.833,2.617,5.833,5.833C26.941,52.352,24.324,54.968,21.108,54.968z M13.325,45.302c-2.114,0-3.833,1.719-3.833,3.833
	s1.719,3.833,3.833,3.833h7.783c2.113,0,3.833-1.72,3.833-3.833s-1.719-3.833-3.833-3.833H13.325z"/>
<path d="M76.675,54.968h-7.783c-3.217,0-5.833-2.616-5.833-5.833c0-3.216,2.616-5.833,5.833-5.833h7.783
	c3.217,0,5.833,2.617,5.833,5.833C82.508,52.352,79.892,54.968,76.675,54.968z M68.892,45.302c-2.113,0-3.833,1.719-3.833,3.833
	s1.72,3.833,3.833,3.833h7.783c2.113,0,3.833-1.72,3.833-3.833s-1.72-3.833-3.833-3.833H68.892z"/>
<path d="M53.697,47.391H36.303c-0.552,0-1-0.447-1-1c0-0.552,0.448-1,1-1h17.394c0.553,0,1,0.448,1,1
	C54.697,46.943,54.25,47.391,53.697,47.391z"/>
<path d="M53.697,53.391H36.303c-0.552,0-1-0.447-1-1s0.448-1,1-1h17.394c0.553,0,1,0.447,1,1S54.25,53.391,53.697,53.391z"/>
<g>
</g>
<g>
</g>
<g>
</g>
<g>
</g>
<g>
</g>
<g>
</g>
</svg>
